<?xml version="1.0" encoding="utf-8"?>
<!-- Generator: Adobe Illustrator 24.3.0, SVG Export Plug-In . SVG Version: 6.00 Build 0)  -->
<svg version="1.1" id="Calque_1" xmlns="http://www.w3.org/2000/svg" xmlns:xlink="http://www.w3.org/1999/xlink" x="0px" y="0px"
	 viewBox="0 0 1000 1000" style="enable-background:new 0 0 1000 1000;" xml:space="preserve">
<g>
	<path d="M781.8,308H692v-90.2L631.8,158H517.3L457,217.8V308h-65v-40.2L331.8,208h-89.5L182,267.8V458h-25l0.1,367.3l35,0.1
		L192,493h100.2l64.7,64.2v76.5l100,75V775h35v-83.8l-100-75V550v-7.2V343h75.3l39.7,39.2V557l35-35V367.8l-50-50v-85.5l39.8-39.2
		h85.5l39.7,39.2v383.3l35-35V343h75.2l39.8,39.8V825h35V368.5L781.8,308z M357,507.8L306.8,458H217V282.2l39.8-39.2h60.5l39.7,39.2
		V507.8z"/>
	<path d="M274.5,555c-18,0-32.5,14.6-32.5,32.5s14.6,32.5,32.5,32.5c17.9,0,32.5-14.6,32.5-32.5C307,569.6,292.5,555,274.5,555z"/>
</g>
</svg>
