<?xml version="1.0" encoding="utf-8"?>
<!-- Generator: Adobe Illustrator 24.3.0, SVG Export Plug-In . SVG Version: 6.00 Build 0)  -->
<svg version="1.1" id="Calque_1" xmlns="http://www.w3.org/2000/svg" xmlns:xlink="http://www.w3.org/1999/xlink" x="0px" y="0px"
	 viewBox="0 0 2650 1000" style="enable-background:new 0 0 2650 1000;" xml:space="preserve">
<g>
	<path d="M781.8,308H692v-90.2L631.8,158H517.3L457,217.8V308h-65v-40.2L331.8,208h-89.5L182,267.8V458h-25l0.1,367.3l35,0.1
		L192,493h100.2l64.7,64.2v76.5l100,75V775h35v-83.8l-100-75V550v-7.2V343h75.3l39.7,39.2V557l35-35V367.8l-50-50v-85.5l39.8-39.2
		h85.5l39.7,39.2v383.3l35-35V343h75.2l39.8,39.8V825h35V368.5L781.8,308z M357,507.8L306.8,458H217V282.2l39.8-39.2h60.5l39.7,39.2
		V507.8z"/>
	<path d="M274.5,555c-18,0-32.5,14.6-32.5,32.5s14.6,32.5,32.5,32.5c17.9,0,32.5-14.6,32.5-32.5C307,569.6,292.5,555,274.5,555z"/>
</g>
<g>
	<g>
		<path d="M1022.4,474.6l-22.5-22.5V158h30.8v288.3h17.9V158h30.8v294.1l-22.5,22.5H1022.4z"/>
		<path d="M1149,474.6V330.5h-17.9v144.1h-30.8V158h57.1l22.5,22.5v121.2l-14.6,14.2l14.6,14.6v144.1H1149z M1149,186.3h-17.9v115.8
			h17.9V186.3z"/>
		<path d="M1200.6,474.6V158h57.1l22.5,22.5v121.2l-14.6,14.2l14.6,14.6v121.6l-22.5,22.5H1200.6z M1249.4,186.3h-17.9v115.8h17.9
			V186.3z M1249.4,330.5h-17.9v115.8h17.9V330.5z"/>
		<path d="M1357.7,474.6l-4.6-60H1331l-4.6,60h-30.8l28.7-316.6h35.4l28.7,316.6H1357.7z M1342.3,270.9h-0.4l-8.7,115.4h17.9
			L1342.3,270.9z"/>
		<path d="M1463.9,474.6l-28.3-166.2h-0.8v166.2h-30.8V158h30.8l28.3,166.6h0.8V158h30.8v316.6H1463.9z"/>
		<path d="M1022.4,825.4l-22.5-22.5v-59.6h30.8V797h17.9V681.2h-26.2l-22.5-22.1V531.3l22.5-22.5h34.6l22.5,22.5v59.6h-30.8v-53.7
			h-17.9v115.8h26.2l22.5,21.7v128.3l-22.5,22.5H1022.4z"/>
		<path d="M1100.3,825.4V508.8h57.1l22.5,22.5v127.1l-22.5,22.9h-26.2v144.1H1100.3z M1149,537.1h-17.9v115.8h17.9V537.1z"/>
		<path d="M1199.4,825.4V508.8h68.3v28.3h-37.5v115.8h22.5v28.3h-22.5V797h37.5v28.3H1199.4z"/>
		<path d="M1308.1,825.4l-22.5-22.5V531.3l22.5-22.5h35l22.1,22.5v68.3h-30.8v-62.5h-17.9V797h17.9v-62.5h30.8v68.3l-22.5,22.5
			H1308.1z"/>
		<path d="M1386,825.4V508.8h30.8v316.6H1386z"/>
		<path d="M1437.6,825.4V508.8h68.3v28.3h-37.5v115.8h22.5v28.3h-22.5V797h37.5v28.3H1437.6z"/>
		<path d="M1546.4,825.4l-22.5-22.5v-59.6h30.8V797h17.9V681.2h-26.2l-22.5-22.1V531.3l22.5-22.5h34.6l22.5,22.5v59.6h-30.8v-53.7
			h-17.9v115.8h26.2l22.5,21.7v128.3l-22.5,22.5H1546.4z"/>
	</g>
</g>
<g>
	<path d="M1762.3,474.6V158h68.3v28.3h-37.5v115.8h22.5v28.3h-22.5v115.8h37.5v28.3H1762.3z"/>
	<path d="M1871,474.6l-22.5-22.5v-59.6h30.8v53.7h17.9V330.5H1871l-22.5-22.1V180.5L1871,158h34.6l22.5,22.5v59.6h-30.8v-53.7h-17.9
		v115.8h26.2l22.5,21.7v128.3l-22.5,22.5H1871z"/>
	<path d="M1948.9,474.6V158h57.1l22.5,22.5v127.1l-22.5,22.9h-26.2v144.1H1948.9z M1997.6,186.3h-17.9v115.8h17.9V186.3z"/>
	<path d="M2048,474.6V158h68.3v28.3h-37.5v115.8h22.5v28.3h-22.5v115.8h37.5v28.3H2048z"/>
	<path d="M2156.7,474.6l-22.5-22.5V180.5l22.5-22.5h35l22.1,22.5v68.3H2183v-62.5h-17.9v259.9h17.9v-62.5h30.8v68.3l-22.5,22.5
		H2156.7z"/>
	<path d="M2234.6,474.6V158h68.3v28.3h-37.5v115.8h22.5v28.3h-22.5v115.8h37.5v28.3H2234.6z"/>
	<path d="M2343.3,474.6l-22.5-22.5v-59.6h30.8v53.7h17.9V330.5h-26.2l-22.5-22.1V180.5l22.5-22.5h34.6l22.5,22.5v59.6h-30.8v-53.7
		h-17.9v115.8h26.2l22.5,21.7v128.3l-22.5,22.5H2343.3z"/>
	<path d="M1784.8,825.4l-22.5-22.5V508.8h30.8V797h17.9V508.8h30.8v294.1l-22.5,22.5H1784.8z"/>
	<path d="M1911.4,825.4V681.2h-17.9v144.1h-30.8V508.8h57.1l22.5,22.5v121.2l-14.6,14.2l14.6,14.6v144.1H1911.4z M1911.4,537.1
		h-17.9v115.8h17.9V537.1z"/>
	<path d="M1963.1,825.4V508.8h57.1l22.5,22.5v121.2l-14.6,14.2l14.6,14.6v121.6l-22.5,22.5H1963.1z M2011.8,537.1h-17.9v115.8h17.9
		V537.1z M2011.8,681.2h-17.9V797h17.9V681.2z"/>
	<path d="M2120.1,825.4l-4.6-60h-22.1l-4.6,60H2058l28.7-316.6h35.4l28.7,316.6H2120.1z M2104.7,621.7h-0.4l-8.7,115.4h17.9
		L2104.7,621.7z"/>
	<path d="M2166.3,825.4V508.8h30.8v316.6H2166.3z"/>
	<path d="M2278,825.4l-28.3-166.2h-0.8v166.2H2218V508.8h30.8l28.3,166.6h0.8V508.8h30.8v316.6H2278z"/>
	<path d="M2329.6,825.4V508.8h68.3v28.3h-37.5v115.8h22.5v28.3h-22.5V797h37.5v28.3H2329.6z"/>
	<path d="M2438.3,825.4l-22.5-22.5v-59.6h30.8V797h17.9V681.2h-26.2l-22.5-22.1V531.3l22.5-22.5h34.6l22.5,22.5v59.6h-30.8v-53.7
		h-17.9v115.8h26.2l22.5,21.7v128.3l-22.5,22.5H2438.3z"/>
</g>
</svg>
